<?xml version="1.0" encoding="iso-8859-1"?>
<!-- Uploaded to: SVG Repo, www.svgrepo.com, Generator: SVG Repo Mixer Tools -->
<!DOCTYPE svg PUBLIC "-//W3C//DTD SVG 1.1//EN" "http://www.w3.org/Graphics/SVG/1.1/DTD/svg11.dtd">
<svg fill="#000000" version="1.1" id="Capa_1" xmlns="http://www.w3.org/2000/svg" xmlns:xlink="http://www.w3.org/1999/xlink" 
	 width="800px" height="800px" viewBox="0 0 108.336 108.336"
	 xml:space="preserve">
<g>
	<path d="M54.168,0C24.3,0,0,24.3,0,54.168c0,29.869,24.3,54.168,54.168,54.168s54.168-24.299,54.168-54.168
		C108.336,24.3,84.036,0,54.168,0z M89.855,23.386c0.004,0.125,0.011,0.25,0.017,0.374c-0.011,0.028-0.021,0.057-0.03,0.085
		c-0.398-0.683-0.812-1.357-1.24-2.025c0.043,0.042,0.096,0.079,0.139,0.122c0.393,0.394,0.893,0.622,1.291,0.992
		C90.383,23.262,90.162,23.333,89.855,23.386z"/>
</g>
</svg>